<svg id="OBJECTS" xmlns="http://www.w3.org/2000/svg" viewBox="0 0 116.88 66.66"><defs><style>.cls-1{font-size:12px;}.cls-1,.cls-8{fill:#1c4d99;}.cls-1,.cls-5{font-family:Roboto Condensed;font-weight:700;}.cls-2,.cls-4{letter-spacing:1px;}.cls-3,.cls-4{fill:#48a91e;}.cls-5{font-size:4.62px;}.cls-6{fill:#094da0;}.cls-7{fill:#0eacdb;}.cls-9{fill:#237a09;}</style></defs><title>logo</title><text class="cls-1" transform="translate(12.35 58.69)"><tspan class="cls-2">Mo</tspan><tspan class="cls-2" x="17.47" y="0">r</tspan><tspan class="cls-2" x="22.94" y="0">tgage</tspan><tspan x="56.09" y="0"> </tspan><tspan class="cls-3" x="59.7" y="0">T</tspan><tspan class="cls-4" x="67.04" y="0">rust</tspan></text><text class="cls-5" transform="translate(29.84 65.41)">Find<tspan x="11.63" y="0"> </tspan><tspan x="13.48" y="0">The Better solution</tspan></text><rect class="cls-6" x="226.2" y="240.07" width="3.6" height="3.6" transform="translate(259.76 259.99) rotate(180)"/><rect class="cls-6" x="220.8" y="240.07" width="3.6" height="3.6" transform="translate(248.96 259.99) rotate(180)"/><rect class="cls-6" x="226.2" y="245.37" width="3.6" height="3.6" transform="translate(259.76 270.59) rotate(180)"/><rect class="cls-6" x="220.8" y="245.37" width="3.6" height="3.6" transform="translate(248.96 270.59) rotate(180)"/><path class="cls-6" d="M212.44,248.07l15.61-24.32h-5.4l-18.37,28.61h0.3A9.34,9.34,0,0,0,212.44,248.07Z" transform="translate(-196.24 -223.75)"/><path class="cls-6" d="M239.5,262.53H199.72l1.07-1.91a6.62,6.62,0,0,1,5.77-3.38h39.78l-1.07,1.91A6.62,6.62,0,0,1,239.5,262.53Z" transform="translate(-196.24 -223.75)"/><path class="cls-6" d="M236,269.63H196.24l1.07-1.91a6.62,6.62,0,0,1,5.77-3.38h39.78l-1.07,1.91A6.62,6.62,0,0,1,236,269.63Z" transform="translate(-196.24 -223.75)"/><path class="cls-7" d="M238.26,248.07l-15.61-24.32h33.52l18.37,28.61H246.12A9.34,9.34,0,0,1,238.26,248.07Z" transform="translate(-196.24 -223.75)"/><rect class="cls-8" x="91.36" y="33.49" width="3.6" height="3.6"/><rect class="cls-8" x="96.76" y="33.49" width="3.6" height="3.6"/><rect class="cls-8" x="91.36" y="38.78" width="3.6" height="3.6"/><rect class="cls-8" x="96.76" y="38.78" width="3.6" height="3.6"/><path class="cls-9" d="M305,265.23l-15.61-24.32h5.4l18.37,28.61h-0.3A9.34,9.34,0,0,1,305,265.23Z" transform="translate(-196.24 -223.75)"/><path class="cls-3" d="M279.15,265.23l15.61-24.32H261.24l-18.37,28.61h28.42A9.34,9.34,0,0,0,279.15,265.23Z" transform="translate(-196.24 -223.75)"/><rect class="cls-3" x="75.11" y="13.99" width="5.72" height="8.27"/></svg>